# xmcd
#
# Track frame offsets:
#	150
#	33057
#	50385
#	82886
#	106008
#	134195
#	170358
#
# Disc length: 2580 seconds
#
# Revision: 0
# Processed by: cddbd v1.5.1PL0 Copyright (c) Steve Scherf et al.
# Submitted via: dBpowerAMP V4.0
#
DISCID=4d0a1207
DTITLE=Eric Clapton - Rainbow Concert [CD1]
DYEAR=1900
DGENRE=Blues
TTITLE0=Layla
TTITLE1=Badge
TTITLE2=Blues Power
TTITLE3=Nobody Knows You
TTITLE4=Take It Easy
TTITLE5=Why Does Love Got to Be so Sad
TTITLE6=Little Wing
EXTD=Eric Clapton and the Palpitations, CD2
EXTT0=
EXTT1=
EXTT2=
EXTT3=
EXTT4=
EXTT5=
EXTT6=
PLAYORDER=
